M48
METRIC,TZ
VER,1
FMAT,2
DETECT,ON
ATC,ON
T1C3.2000
T2C0.8890
T3C0.9949
T4C0.9000
T5C0.6000
%
T1
X660400Y355600
X139700Y25400
X660400Y76200
X152400Y508000
T2
X457200Y25400
X330200
X304800
X355600
X406400
X381000
X431800
X533400
X558800
X609600
X584200
X635000
X340360Y508000
X365760
X391160
X289560
X314960
X264160
X213360
X238760
X187960
X635000Y233680
Y259080
Y208280
X457200Y508000
X584200
X609600
X558800
X508000
X533400
X482600
X325120Y137160
X312420Y124460
X299720Y137160
X243840Y187960
X231140Y175260
X218440Y187960
X320040Y243840
X307340Y231140
X294640Y243840
X152400Y284480
Y309880
T3
X279400Y25400
X508000
X416560Y508000
X635000Y284480
Y508000
X152400Y259080
T4
X411480Y301800
Y431800
X365760Y301800
Y431800
X320040Y301800
Y431800
X449120Y203200
X579120
X449120Y259080
X579120
X449120Y142240
X579120
T5
X262500Y210000
X315000
M30
