G04 Generated by Ultiboard 14.1 *
%FSLAX34Y34*%
%MOMM*%

%ADD10C,0.0001*%
%ADD11C,0.2540*%
%ADD12C,1.6088*%
%ADD13R,0.5291X0.5291*%
%ADD14C,0.9949*%
%ADD15C,1.2446*%
%ADD16R,1.2446X1.2446*%
%ADD17C,1.5000*%
%ADD18C,1.0000*%


G04 ColorRGB 0000FF for the following layer *
%LNCopper Bottom*%
%LPD*%
G54D10*
G54D11*
X457200Y25400D02*
X461800Y30000D01*
X465000Y30000D01*
X465000Y270000D01*
X262620Y210120D02*
X314880Y210120D01*
X315000Y210000D01*
X262620Y210120D02*
X262500Y210000D01*
X244420Y187380D02*
X243840Y187960D01*
X429056Y187380D02*
X444876Y203200D01*
X429056Y187380D02*
X244420Y187380D01*
X444876Y203200D02*
X449120Y203200D01*
X152400Y261150D02*
X152400Y259080D01*
X157480Y259080D02*
X152400Y259080D01*
X154660Y307620D02*
X152400Y309880D01*
X157500Y307620D02*
X154660Y307620D01*
X634256Y287540D02*
X635000Y286796D01*
X635000Y284480D02*
X635000Y286796D01*
X177580Y287540D02*
X157500Y307620D01*
X634256Y287540D02*
X177580Y287540D01*
X454960Y280040D02*
X178440Y280040D01*
X465000Y270000D02*
X454960Y280040D01*
X178440Y280040D02*
X157480Y259080D01*
G54D12*
X457200Y25400D03*
X330200Y25400D03*
X304800Y25400D03*
X355600Y25400D03*
X406400Y25400D03*
X381000Y25400D03*
X431800Y25400D03*
X533400Y25400D03*
X558800Y25400D03*
X609600Y25400D03*
X584200Y25400D03*
X635000Y25400D03*
X340360Y508000D03*
X365760Y508000D03*
X391160Y508000D03*
X289560Y508000D03*
X314960Y508000D03*
X264160Y508000D03*
X213360Y508000D03*
X238760Y508000D03*
X187960Y508000D03*
X635000Y233680D03*
X635000Y259080D03*
X635000Y208280D03*
X457200Y508000D03*
X584200Y508000D03*
X609600Y508000D03*
X558800Y508000D03*
X508000Y508000D03*
X533400Y508000D03*
X482600Y508000D03*
X152400Y284480D03*
X152400Y309880D03*
G54D13*
X279400Y25400D03*
X508000Y25400D03*
X416560Y508000D03*
X635000Y284480D03*
X635000Y508000D03*
X152400Y259080D03*
G54D14*
X276755Y22755D02*
X282045Y22755D01*
X282045Y28045D01*
X276755Y28045D01*
X276755Y22755D01*D02*
X505355Y22755D02*
X510645Y22755D01*
X510645Y28045D01*
X505355Y28045D01*
X505355Y22755D01*D02*
X413915Y505355D02*
X419205Y505355D01*
X419205Y510645D01*
X413915Y510645D01*
X413915Y505355D01*D02*
X632355Y281835D02*
X637645Y281835D01*
X637645Y287125D01*
X632355Y287125D01*
X632355Y281835D01*D02*
X632355Y505355D02*
X637645Y505355D01*
X637645Y510645D01*
X632355Y510645D01*
X632355Y505355D01*D02*
X149755Y256435D02*
X155045Y256435D01*
X155045Y261725D01*
X149755Y261725D01*
X149755Y256435D01*D02*
G54D15*
X325120Y137160D03*
X312420Y124460D03*
X243840Y187960D03*
X231140Y175260D03*
X320040Y243840D03*
X307340Y231140D03*
G54D16*
X299720Y137160D03*
X218440Y187960D03*
X294640Y243840D03*
G54D17*
X411480Y301800D03*
X411480Y431800D03*
X365760Y301800D03*
X365760Y431800D03*
X320040Y301800D03*
X320040Y431800D03*
X449120Y203200D03*
X579120Y203200D03*
X449120Y259080D03*
X579120Y259080D03*
X449120Y142240D03*
X579120Y142240D03*
G54D18*
X262500Y210000D03*
X315000Y210000D03*

M02*
