G04 Generated by Ultiboard 14.1 *
%FSLAX34Y34*%
%MOMM*%

%ADD10C,0.0001*%
%ADD11C,0.0933*%
%ADD12C,0.1333*%
%ADD13C,0.2540*%
%ADD14C,0.2032*%
%ADD15C,0.0706*%
%ADD16C,0.2000*%
%ADD17C,0.1600*%
%ADD18C,0.1176*%
%ADD19C,0.1000*%


G04 ColorRGB FFFF00 for the following layer *
%LNSilkscreen Top*%
%LPD*%
G54D10*
G54D11*
X638380Y486684D02*
X640380Y484693D01*
X640380Y482702D01*
X638380Y480711D01*
X632380Y480711D01*
X630380Y482702D01*
X630380Y484693D01*
X632380Y486684D01*
X638380Y486684D01*
X638380Y480711D02*
X632380Y486684D01*
X577040Y479716D02*
X575040Y481707D01*
X575040Y483698D01*
X577040Y485689D01*
X578040Y485689D01*
X585040Y479716D01*
X585040Y485689D01*
X584040Y485689D01*
X607520Y480711D02*
X605520Y482702D01*
X615520Y482702D01*
X615520Y479716D02*
X615520Y485689D01*
X553180Y480711D02*
X552180Y481707D01*
X552180Y483698D01*
X554180Y485689D01*
X556180Y485689D01*
X557180Y484693D01*
X558180Y485689D01*
X560180Y485689D01*
X562180Y483698D01*
X562180Y481707D01*
X561180Y480711D01*
X557180Y481707D02*
X557180Y484693D01*
X537860Y485689D02*
X537860Y479716D01*
X531860Y484693D01*
X541860Y484693D01*
X541860Y483698D02*
X541860Y485689D01*
X503920Y485689D02*
X503920Y479716D01*
X507920Y479716D01*
X507920Y483698D01*
X509920Y485689D01*
X511920Y485689D01*
X513920Y483698D01*
X513920Y479716D01*
X419940Y483698D02*
X419940Y481707D01*
X417940Y479716D01*
X415940Y479716D01*
X414940Y480711D01*
X413940Y479716D01*
X411940Y479716D01*
X409940Y481707D01*
X409940Y483698D01*
X411940Y485689D01*
X413940Y485689D01*
X414940Y484693D01*
X415940Y485689D01*
X417940Y485689D01*
X419940Y483698D01*
X414940Y480711D02*
X414940Y484693D01*
X460580Y482702D02*
X455580Y482702D01*
X452580Y485689D01*
X450580Y485689D01*
X450580Y479716D01*
X452580Y479716D01*
X478520Y484693D02*
X478520Y481707D01*
X480520Y479716D01*
X484520Y479716D01*
X486520Y479716D01*
X488520Y481707D01*
X488520Y483698D01*
X486520Y485689D01*
X484520Y485689D01*
X482520Y483698D01*
X482520Y481707D01*
X484520Y479716D01*
X395080Y477176D02*
X397080Y479167D01*
X397080Y481158D01*
X395080Y483149D01*
X391080Y483149D01*
X389080Y483149D01*
X387080Y481158D01*
X387080Y479167D01*
X389080Y477176D01*
X391080Y477176D01*
X393080Y479167D01*
X393080Y481158D01*
X391080Y483149D01*
X363680Y471151D02*
X361680Y473142D01*
X371680Y473142D01*
X371680Y470156D02*
X371680Y476129D01*
X363680Y479116D02*
X361680Y481107D01*
X361680Y483098D01*
X363680Y485089D01*
X369680Y485089D01*
X371680Y483098D01*
X371680Y481107D01*
X369680Y479116D01*
X363680Y479116D01*
X363680Y485089D02*
X369680Y479116D01*
X338280Y471751D02*
X336280Y473742D01*
X346280Y473742D01*
X346280Y470756D02*
X346280Y476729D01*
X338280Y480711D02*
X336280Y482702D01*
X346280Y482702D01*
X346280Y479716D02*
X346280Y485689D01*
X312880Y471151D02*
X310880Y473142D01*
X320880Y473142D01*
X320880Y470156D02*
X320880Y476129D01*
X312880Y479116D02*
X310880Y481107D01*
X310880Y483098D01*
X312880Y485089D01*
X313880Y485089D01*
X320880Y479116D01*
X320880Y485089D01*
X319880Y485089D01*
X284940Y471751D02*
X282940Y473742D01*
X292940Y473742D01*
X292940Y470756D02*
X292940Y476729D01*
X283940Y480711D02*
X282940Y481707D01*
X282940Y483698D01*
X284940Y485689D01*
X286940Y485689D01*
X287940Y484693D01*
X288940Y485689D01*
X290940Y485689D01*
X292940Y483698D01*
X292940Y481707D01*
X291940Y480711D01*
X287940Y481707D02*
X287940Y484693D01*
X265080Y470258D02*
X265080Y472249D01*
X268080Y472249D01*
X270080Y470258D01*
X270080Y468267D01*
X268080Y466276D01*
X262080Y466276D01*
X260080Y468267D01*
X260080Y472249D01*
X270080Y475236D02*
X260080Y475236D01*
X270080Y481209D01*
X260080Y481209D01*
X270080Y484196D02*
X270080Y488178D01*
X268080Y490169D01*
X262080Y490169D01*
X260080Y488178D01*
X260080Y484196D01*
X260080Y485191D02*
X270080Y485191D01*
X244680Y460456D02*
X238680Y460456D01*
X234680Y462447D01*
X234680Y464438D01*
X238680Y466429D01*
X244680Y466429D01*
X241680Y460456D02*
X241680Y466429D01*
X244680Y469416D02*
X234680Y469416D01*
X234680Y473398D01*
X236680Y475389D01*
X237680Y475389D01*
X239680Y473398D01*
X239680Y469416D01*
X239680Y470411D02*
X244680Y475389D01*
X244680Y484349D02*
X244680Y478376D01*
X239680Y478376D01*
X234680Y478376D01*
X234680Y484349D01*
X239680Y478376D02*
X239680Y482358D01*
X244680Y487336D02*
X234680Y487336D01*
X234680Y493309D01*
X239680Y487336D02*
X239680Y491318D01*
X513920Y44036D02*
X507920Y44036D01*
X503920Y46027D01*
X503920Y48018D01*
X507920Y50009D01*
X513920Y50009D01*
X510920Y44036D02*
X510920Y50009D01*
X505920Y52996D02*
X503920Y54987D01*
X503920Y56978D01*
X505920Y58969D01*
X511920Y58969D01*
X513920Y56978D01*
X513920Y54987D01*
X511920Y52996D01*
X505920Y52996D01*
X505920Y58969D02*
X511920Y52996D01*
X643460Y44036D02*
X637460Y44036D01*
X633460Y46027D01*
X633460Y48018D01*
X637460Y50009D01*
X643460Y50009D01*
X640460Y44036D02*
X640460Y50009D01*
X633460Y58969D02*
X633460Y52996D01*
X637460Y52996D01*
X637460Y56978D01*
X639460Y58969D01*
X641460Y58969D01*
X643460Y56978D01*
X643460Y52996D01*
X539828Y44036D02*
X533828Y44036D01*
X529828Y46027D01*
X529828Y48018D01*
X533828Y50009D01*
X539828Y50009D01*
X536828Y44036D02*
X536828Y50009D01*
X531828Y53991D02*
X529828Y55982D01*
X539828Y55982D01*
X539828Y52996D02*
X539828Y58969D01*
X565736Y44036D02*
X559736Y44036D01*
X555736Y46027D01*
X555736Y48018D01*
X559736Y50009D01*
X565736Y50009D01*
X562736Y44036D02*
X562736Y50009D01*
X557736Y52996D02*
X555736Y54987D01*
X555736Y56978D01*
X557736Y58969D01*
X558736Y58969D01*
X565736Y52996D01*
X565736Y58969D01*
X564736Y58969D01*
X591644Y44036D02*
X585644Y44036D01*
X581644Y46027D01*
X581644Y48018D01*
X585644Y50009D01*
X591644Y50009D01*
X588644Y44036D02*
X588644Y50009D01*
X582644Y53991D02*
X581644Y54987D01*
X581644Y56978D01*
X583644Y58969D01*
X585644Y58969D01*
X586644Y57973D01*
X587644Y58969D01*
X589644Y58969D01*
X591644Y56978D01*
X591644Y54987D01*
X590644Y53991D01*
X586644Y54987D02*
X586644Y57973D01*
X617552Y44036D02*
X611552Y44036D01*
X607552Y46027D01*
X607552Y48018D01*
X611552Y50009D01*
X617552Y50009D01*
X614552Y44036D02*
X614552Y50009D01*
X613552Y58969D02*
X613552Y52996D01*
X607552Y57973D01*
X617552Y57973D01*
X617552Y56978D02*
X617552Y58969D01*
X318340Y45287D02*
X318340Y47278D01*
X308340Y45287D02*
X308340Y47278D01*
X318340Y46282D02*
X308340Y46282D01*
X316340Y52256D02*
X318340Y54247D01*
X318340Y56238D01*
X316340Y58229D01*
X310340Y58229D01*
X308340Y56238D01*
X308340Y54247D01*
X310340Y52256D01*
X316340Y52256D01*
X318340Y61216D02*
X308340Y61216D01*
X308340Y65198D01*
X310340Y67189D01*
X311340Y67189D01*
X313340Y65198D01*
X313340Y61216D01*
X313340Y62211D02*
X318340Y67189D01*
X318340Y76149D02*
X318340Y70176D01*
X313340Y70176D01*
X308340Y70176D01*
X308340Y76149D01*
X313340Y70176D02*
X313340Y74158D01*
X318340Y79136D02*
X308340Y79136D01*
X308340Y85109D01*
X313340Y79136D02*
X313340Y83118D01*
X338660Y43296D02*
X328660Y43296D01*
X328660Y47278D01*
X330660Y49269D01*
X331660Y49269D01*
X333660Y47278D01*
X333660Y43296D01*
X333660Y44291D02*
X338660Y49269D01*
X338660Y58229D02*
X338660Y52256D01*
X333660Y52256D01*
X328660Y52256D01*
X328660Y58229D01*
X333660Y52256D02*
X333660Y56238D01*
X336660Y61216D02*
X338660Y63207D01*
X338660Y65198D01*
X336660Y67189D01*
X330660Y61216D01*
X328660Y63207D01*
X328660Y65198D01*
X330660Y67189D01*
X338660Y76149D02*
X338660Y70176D01*
X333660Y70176D01*
X328660Y70176D01*
X328660Y76149D01*
X333660Y70176D02*
X333660Y74158D01*
X338660Y82122D02*
X328660Y82122D01*
X328660Y79136D02*
X328660Y85109D01*
X455660Y43296D02*
X465660Y46282D01*
X455660Y49269D01*
X465660Y55242D02*
X459660Y55242D01*
X457660Y55242D02*
X456660Y55242D01*
X465660Y61216D02*
X459660Y61216D01*
X458660Y61216D01*
X459660Y61216D02*
X458660Y62211D01*
X458660Y64202D01*
X459660Y65198D01*
X465660Y65198D01*
X379460Y49269D02*
X379460Y43296D01*
X383460Y43296D01*
X383460Y47278D01*
X385460Y49269D01*
X387460Y49269D01*
X389460Y47278D01*
X389460Y43296D01*
X379460Y52256D02*
X389460Y55242D01*
X379460Y58229D01*
X411378Y50300D02*
X413369Y50300D01*
X413369Y47300D01*
X411378Y45300D01*
X409387Y45300D01*
X407396Y47300D01*
X407396Y53300D01*
X409387Y55300D01*
X413369Y55300D01*
X416356Y45300D02*
X416356Y55300D01*
X422329Y45300D01*
X422329Y55300D01*
X425316Y45300D02*
X429298Y45300D01*
X431289Y47300D01*
X431289Y53300D01*
X429298Y55300D01*
X425316Y55300D01*
X426311Y55300D02*
X426311Y45300D01*
X285476Y441120D02*
X289458Y441120D01*
X291449Y443120D01*
X291449Y449120D01*
X289458Y451120D01*
X285476Y451120D01*
X286471Y451120D02*
X286471Y441120D01*
X296427Y441120D02*
X298418Y441120D01*
X296427Y451120D02*
X298418Y451120D01*
X297422Y441120D02*
X297422Y451120D01*
X307378Y446120D02*
X309369Y446120D01*
X309369Y443120D01*
X307378Y441120D01*
X305387Y441120D01*
X303396Y443120D01*
X303396Y449120D01*
X305387Y451120D01*
X309369Y451120D01*
X314347Y441120D02*
X316338Y441120D01*
X314347Y451120D02*
X316338Y451120D01*
X315342Y441120D02*
X315342Y451120D01*
X324302Y441120D02*
X324302Y451120D01*
X321316Y451120D02*
X327289Y451120D01*
X330276Y441120D02*
X330276Y447120D01*
X332267Y451120D01*
X334258Y451120D01*
X336249Y447120D01*
X336249Y441120D01*
X330276Y444120D02*
X336249Y444120D01*
X339236Y451120D02*
X339236Y441120D01*
X345209Y441120D01*
X371093Y441120D02*
X370098Y441120D01*
X368107Y443120D01*
X368107Y449120D01*
X370098Y451120D01*
X371093Y451120D01*
X375076Y441120D02*
X375076Y451120D01*
X379058Y451120D01*
X381049Y449120D01*
X381049Y448120D01*
X379058Y446120D01*
X375076Y446120D01*
X384036Y451120D02*
X385031Y441120D01*
X387022Y445120D01*
X389013Y441120D01*
X390009Y451120D01*
X392996Y441120D02*
X392996Y451120D01*
X395982Y446120D01*
X398969Y451120D01*
X398969Y441120D01*
X402951Y451120D02*
X403947Y451120D01*
X405938Y449120D01*
X405938Y443120D01*
X403947Y441120D01*
X402951Y441120D01*
X355060Y44291D02*
X354060Y45287D01*
X354060Y47278D01*
X356060Y49269D01*
X358060Y49269D01*
X359060Y48273D01*
X360060Y49269D01*
X362060Y49269D01*
X364060Y47278D01*
X364060Y45287D01*
X363060Y44291D01*
X359060Y45287D02*
X359060Y48273D01*
X364060Y55242D02*
X363060Y55242D01*
X355060Y62211D02*
X354060Y63207D01*
X354060Y65198D01*
X356060Y67189D01*
X358060Y67189D01*
X359060Y66193D01*
X360060Y67189D01*
X362060Y67189D01*
X364060Y65198D01*
X364060Y63207D01*
X363060Y62211D01*
X359060Y63207D02*
X359060Y66193D01*
X354060Y70176D02*
X364060Y73162D01*
X354060Y76149D01*
X188216Y260000D02*
X191202Y250000D01*
X194189Y260000D01*
X200162Y250000D02*
X200162Y256000D01*
X200162Y258000D02*
X200162Y259000D01*
X206136Y250000D02*
X206136Y256000D01*
X206136Y257000D01*
X206136Y256000D02*
X207131Y257000D01*
X209122Y257000D01*
X210118Y256000D01*
X210118Y250000D01*
X192198Y280400D02*
X194189Y280400D01*
X194189Y277400D01*
X192198Y275400D01*
X190207Y275400D01*
X188216Y277400D01*
X188216Y283400D01*
X190207Y285400D01*
X194189Y285400D01*
X197176Y275400D02*
X197176Y281400D01*
X197176Y282400D01*
X197176Y281400D02*
X198171Y282400D01*
X200162Y282400D01*
X201158Y281400D01*
X201158Y275400D01*
X212109Y277400D02*
X210118Y275400D01*
X208127Y275400D01*
X206136Y277400D01*
X206136Y279400D01*
X208127Y281400D01*
X210118Y281400D01*
X212109Y279400D01*
X212109Y285400D02*
X212109Y275400D01*
X185676Y313340D02*
X188662Y303340D01*
X191649Y313340D01*
X199613Y304340D02*
X198618Y303340D01*
X196627Y303340D01*
X194636Y305340D01*
X194636Y308340D01*
X196627Y310340D01*
X198618Y310340D01*
X199613Y309340D01*
X208573Y304340D02*
X207578Y303340D01*
X205587Y303340D01*
X203596Y305340D01*
X203596Y308340D01*
X205587Y310340D01*
X207578Y310340D01*
X208573Y309340D01*
X658116Y293020D02*
X661102Y283020D01*
X664089Y293020D01*
X672053Y284020D02*
X671058Y283020D01*
X669067Y283020D01*
X667076Y285020D01*
X667076Y288020D01*
X669067Y290020D01*
X671058Y290020D01*
X672053Y289020D01*
X681013Y284020D02*
X680018Y283020D01*
X678027Y283020D01*
X676036Y285020D01*
X676036Y288020D01*
X678027Y290020D01*
X680018Y290020D01*
X681013Y289020D01*
X665978Y260080D02*
X667969Y260080D01*
X667969Y257080D01*
X665978Y255080D01*
X663987Y255080D01*
X661996Y257080D01*
X661996Y263080D01*
X663987Y265080D01*
X667969Y265080D01*
X661996Y227140D02*
X661996Y237140D01*
X665978Y237140D01*
X667969Y235140D01*
X667969Y234140D01*
X665978Y232140D01*
X661996Y232140D01*
X662991Y232140D02*
X667969Y227140D01*
X661996Y204280D02*
X665978Y204280D01*
X667969Y206280D01*
X667969Y207280D01*
X665978Y209280D01*
X667969Y211280D01*
X667969Y212280D01*
X665978Y214280D01*
X662991Y214280D01*
X661996Y214280D01*
X662991Y209280D02*
X665978Y209280D01*
X662991Y214280D02*
X662991Y204280D01*
G54D12*
X436553Y81186D02*
X438260Y79471D01*
X439967Y79471D01*
X441673Y81186D01*
X441673Y88043D01*
X445087Y86329D02*
X446793Y88043D01*
X446793Y79471D01*
X444233Y79471D02*
X449353Y79471D01*
X589073Y81186D02*
X590780Y79471D01*
X592487Y79471D01*
X594193Y81186D01*
X594193Y88043D01*
X596753Y86329D02*
X598460Y88043D01*
X600167Y88043D01*
X601873Y86329D01*
X601873Y85471D01*
X596753Y79471D01*
X601873Y79471D01*
X601873Y80329D01*
G54D13*
X266700Y38100D02*
X469900Y38100D01*
X469900Y12700D01*
X266700Y12700D01*
X266700Y38100D01*
X495300Y38100D02*
X647700Y38100D01*
X647700Y12700D01*
X495300Y12700D01*
X495300Y38100D01*
X429260Y495300D02*
X175260Y495300D01*
X175260Y520700D01*
X429260Y520700D01*
X429260Y495300D01*
X647700Y495300D02*
X444500Y495300D01*
X444500Y520700D01*
X647700Y520700D01*
X647700Y495300D01*
G54D14*
X611869Y294715D02*
X610357Y291893D01*
X610357Y289070D01*
X611869Y286248D01*
X617917Y286248D01*
X617161Y280604D02*
X617917Y279193D01*
X617917Y276370D01*
X616405Y273548D01*
X614893Y273548D01*
X614137Y274959D01*
X613381Y273548D01*
X611869Y273548D01*
X610357Y276370D01*
X610357Y279193D01*
X611113Y280604D01*
X614137Y279193D02*
X614137Y274959D01*
X622300Y195580D02*
X622300Y297180D01*
X647700Y195580D02*
X647700Y271780D01*
X647700Y297180D02*
X622300Y297180D01*
X647700Y278130D02*
X647700Y297180D01*
X647700Y273897D02*
X639233Y273897D01*
X645583Y276013D02*
X647700Y273897D01*
X647700Y195580D02*
X622300Y195580D01*
X380480Y375804D02*
X390480Y375804D01*
X390480Y371822D01*
X388480Y369831D01*
X387480Y369831D01*
X385480Y371822D01*
X385480Y375804D01*
X385480Y374809D02*
X380480Y369831D01*
X388480Y365849D02*
X390480Y363858D01*
X380480Y363858D01*
X380480Y366844D02*
X380480Y360871D01*
X334760Y375804D02*
X344760Y375804D01*
X344760Y371822D01*
X342760Y369831D01*
X341760Y369831D01*
X339760Y371822D01*
X339760Y375804D01*
X339760Y374809D02*
X334760Y369831D01*
X342760Y366844D02*
X344760Y364853D01*
X344760Y362862D01*
X342760Y360871D01*
X341760Y360871D01*
X334760Y366844D01*
X334760Y360871D01*
X335760Y360871D01*
X289040Y375804D02*
X299040Y375804D01*
X299040Y371822D01*
X297040Y369831D01*
X296040Y369831D01*
X294040Y371822D01*
X294040Y375804D01*
X294040Y374809D02*
X289040Y369831D01*
X298040Y365849D02*
X299040Y364853D01*
X299040Y362862D01*
X297040Y360871D01*
X295040Y360871D01*
X294040Y361867D01*
X293040Y360871D01*
X291040Y360871D01*
X289040Y362862D01*
X289040Y364853D01*
X290040Y365849D01*
X294040Y364853D02*
X294040Y361867D01*
X176984Y245251D02*
X178495Y248073D01*
X178495Y250896D01*
X176984Y253718D01*
X170936Y253718D01*
X175472Y266418D02*
X175472Y257951D01*
X170936Y265007D01*
X178495Y265007D01*
X178495Y263596D02*
X178495Y266418D01*
X139700Y246380D02*
X165100Y246380D01*
X139700Y322580D02*
X165100Y322580D01*
X139700Y322580D02*
X139700Y271780D01*
X139700Y265430D02*
X139700Y246380D01*
X139700Y269663D02*
X148167Y269663D01*
X141817Y267547D02*
X139700Y269663D01*
X165100Y322580D02*
X165100Y246380D01*
X523124Y234200D02*
X523124Y224200D01*
X519142Y224200D01*
X517151Y226200D01*
X517151Y227200D01*
X519142Y229200D01*
X523124Y229200D01*
X522129Y229200D02*
X517151Y234200D01*
X508191Y224200D02*
X514164Y224200D01*
X514164Y228200D01*
X510182Y228200D01*
X508191Y230200D01*
X508191Y232200D01*
X510182Y234200D01*
X514164Y234200D01*
X523124Y290080D02*
X523124Y280080D01*
X519142Y280080D01*
X517151Y282080D01*
X517151Y283080D01*
X519142Y285080D01*
X523124Y285080D01*
X522129Y285080D02*
X517151Y290080D01*
X508191Y286080D02*
X514164Y286080D01*
X509187Y280080D01*
X509187Y290080D01*
X510182Y290080D02*
X508191Y290080D01*
X523124Y173240D02*
X523124Y163240D01*
X519142Y163240D01*
X517151Y165240D01*
X517151Y166240D01*
X519142Y168240D01*
X523124Y168240D01*
X522129Y168240D02*
X517151Y173240D01*
X509187Y163240D02*
X512173Y163240D01*
X514164Y165240D01*
X514164Y169240D01*
X514164Y171240D01*
X512173Y173240D01*
X510182Y173240D01*
X508191Y171240D01*
X508191Y169240D01*
X510182Y167240D01*
X512173Y167240D01*
X514164Y169240D01*
G54D15*
X309786Y90636D02*
X312796Y90636D01*
X314301Y92148D01*
X314301Y92904D01*
X312796Y94416D01*
X314301Y95928D01*
X314301Y96684D01*
X312796Y98196D01*
X310539Y98196D01*
X309786Y98196D01*
X310539Y94416D02*
X312796Y94416D01*
X310539Y98196D02*
X310539Y90636D01*
X228506Y141436D02*
X228506Y148996D01*
X231516Y148996D01*
X233021Y147484D01*
X233021Y146728D01*
X231516Y145216D01*
X228506Y145216D01*
X229259Y145216D02*
X233021Y141436D01*
X307716Y201096D02*
X309221Y201096D01*
X309221Y198828D01*
X307716Y197316D01*
X306211Y197316D01*
X304706Y198828D01*
X304706Y203364D01*
X306211Y204876D01*
X309221Y204876D01*
G54D16*
X284420Y137160D02*
G75*
D01*
G02X284420Y137160I28000J0*
G01*
X288420Y158660D02*
X291420Y155660D01*
X290920Y161160D02*
X293920Y158160D01*
X290920Y161160D02*
X288420Y158660D01*
X203140Y187960D02*
G75*
D01*
G02X203140Y187960I28000J0*
G01*
X207140Y209460D02*
X210140Y206460D01*
X209640Y211960D02*
X212640Y208960D01*
X209640Y211960D02*
X207140Y209460D01*
X279340Y243840D02*
G75*
D01*
G02X279340Y243840I28000J0*
G01*
X283340Y265340D02*
X286340Y262340D01*
X285840Y267840D02*
X288840Y264840D01*
X285840Y267840D02*
X283340Y265340D01*
G54D17*
X37267Y400243D02*
X37267Y410529D01*
X40680Y417386D01*
X44093Y417386D01*
X47507Y410529D01*
X47507Y400243D01*
X37267Y405386D02*
X47507Y405386D01*
X52627Y400243D02*
X52627Y417386D01*
X59453Y417386D01*
X62867Y413957D01*
X62867Y412243D01*
X59453Y408814D01*
X52627Y408814D01*
X54333Y408814D02*
X62867Y400243D01*
X67987Y400243D02*
X74813Y400243D01*
X78227Y403671D01*
X78227Y413957D01*
X74813Y417386D01*
X67987Y417386D01*
X69693Y417386D02*
X69693Y400243D01*
X83347Y417386D02*
X83347Y403671D01*
X86760Y400243D01*
X90173Y400243D01*
X93587Y403671D01*
X93587Y417386D01*
X102120Y400243D02*
X105533Y400243D01*
X102120Y417386D02*
X105533Y417386D01*
X103827Y400243D02*
X103827Y417386D01*
X114067Y400243D02*
X114067Y417386D01*
X124307Y400243D01*
X124307Y417386D01*
X129427Y403671D02*
X132840Y400243D01*
X136253Y400243D01*
X139667Y403671D01*
X139667Y413957D01*
X136253Y417386D01*
X132840Y417386D01*
X129427Y413957D01*
X129427Y403671D01*
X160147Y417386D02*
X160147Y403671D01*
X163560Y400243D01*
X166973Y400243D01*
X170387Y403671D01*
X170387Y417386D01*
X175507Y400243D02*
X175507Y417386D01*
X185747Y400243D01*
X185747Y417386D01*
X190867Y403671D02*
X194280Y400243D01*
X197693Y400243D01*
X201107Y403671D01*
X201107Y413957D01*
X197693Y417386D01*
X194280Y417386D01*
X190867Y413957D01*
X190867Y403671D01*
G54D18*
X414292Y371875D02*
X415804Y370370D01*
X408245Y370370D01*
X408245Y372627D02*
X408245Y368112D01*
X411268Y365854D02*
X411268Y364349D01*
X413536Y362091D01*
X411268Y364349D02*
X408245Y362091D01*
X408245Y365854D02*
X415804Y365854D01*
X371112Y374415D02*
X372624Y372910D01*
X365065Y372910D01*
X365065Y375167D02*
X365065Y370652D01*
X368088Y368394D02*
X368088Y366889D01*
X370356Y364631D01*
X368088Y366889D02*
X365065Y364631D01*
X365065Y368394D02*
X372624Y368394D01*
X322852Y371875D02*
X324364Y370370D01*
X316805Y370370D01*
X316805Y372627D02*
X316805Y368112D01*
X319828Y365854D02*
X319828Y364349D01*
X322096Y362091D01*
X319828Y364349D02*
X316805Y362091D01*
X316805Y365854D02*
X324364Y365854D01*
X524275Y199632D02*
X523522Y198876D01*
X522017Y198876D01*
X520512Y200388D01*
X520512Y201900D01*
X521265Y202656D01*
X520512Y203412D01*
X520512Y204924D01*
X522017Y206435D01*
X523522Y206435D01*
X524275Y205680D01*
X523522Y202656D02*
X521265Y202656D01*
X517502Y199632D02*
X516749Y198876D01*
X515244Y198876D01*
X513739Y200388D01*
X513739Y201900D01*
X514491Y202656D01*
X513739Y203412D01*
X513739Y204924D01*
X515244Y206435D01*
X516749Y206435D01*
X517502Y205680D01*
X516749Y202656D02*
X514491Y202656D01*
X511481Y200388D02*
X509976Y198876D01*
X508471Y198876D01*
X506966Y200388D01*
X506966Y204924D01*
X508471Y206435D01*
X509976Y206435D01*
X511481Y204924D01*
X511481Y200388D01*
X506966Y200388D02*
X511481Y204924D01*
X526815Y255512D02*
X526062Y254756D01*
X524557Y254756D01*
X523052Y256268D01*
X523052Y257780D01*
X523805Y258536D01*
X523052Y259292D01*
X523052Y260804D01*
X524557Y262315D01*
X526062Y262315D01*
X526815Y261560D01*
X526062Y258536D02*
X523805Y258536D01*
X520042Y255512D02*
X519289Y254756D01*
X517784Y254756D01*
X516279Y256268D01*
X516279Y257780D01*
X517031Y258536D01*
X516279Y259292D01*
X516279Y260804D01*
X517784Y262315D01*
X519289Y262315D01*
X520042Y261560D01*
X519289Y258536D02*
X517031Y258536D01*
X514021Y256268D02*
X512516Y254756D01*
X511011Y254756D01*
X509506Y256268D01*
X509506Y260804D01*
X511011Y262315D01*
X512516Y262315D01*
X514021Y260804D01*
X514021Y256268D01*
X509506Y256268D02*
X514021Y260804D01*
X521735Y138672D02*
X520982Y137916D01*
X519477Y137916D01*
X517972Y139428D01*
X517972Y140940D01*
X518725Y141696D01*
X517972Y142452D01*
X517972Y143964D01*
X519477Y145475D01*
X520982Y145475D01*
X521735Y144720D01*
X520982Y141696D02*
X518725Y141696D01*
X514962Y138672D02*
X514209Y137916D01*
X512704Y137916D01*
X511199Y139428D01*
X511199Y140940D01*
X511951Y141696D01*
X511199Y142452D01*
X511199Y143964D01*
X512704Y145475D01*
X514209Y145475D01*
X514962Y144720D01*
X514209Y141696D02*
X511951Y141696D01*
X508941Y139428D02*
X507436Y137916D01*
X505931Y137916D01*
X504426Y139428D01*
X504426Y143964D01*
X505931Y145475D01*
X507436Y145475D01*
X508941Y143964D01*
X508941Y139428D01*
X504426Y139428D02*
X508941Y143964D01*
G54D19*
X424380Y401800D02*
X398880Y401800D01*
X398880Y331800D01*
X424380Y331800D01*
X424380Y401800D01*
X411480Y417800D02*
X411480Y401800D01*
X411480Y331800D02*
X411480Y314800D01*
X378660Y401800D02*
X353160Y401800D01*
X353160Y331800D01*
X378660Y331800D01*
X378660Y401800D01*
X365760Y417800D02*
X365760Y401800D01*
X365760Y331800D02*
X365760Y314800D01*
X332940Y401800D02*
X307440Y401800D01*
X307440Y331800D01*
X332940Y331800D01*
X332940Y401800D01*
X320040Y417800D02*
X320040Y401800D01*
X320040Y331800D02*
X320040Y314800D01*
X549120Y190300D02*
X479120Y190300D01*
X479120Y215800D01*
X549120Y215800D01*
X549120Y190300D01*
X565120Y203200D02*
X549120Y203200D01*
X479120Y203200D02*
X462120Y203200D01*
X549120Y246180D02*
X479120Y246180D01*
X479120Y271680D01*
X549120Y271680D01*
X549120Y246180D01*
X565120Y259080D02*
X549120Y259080D01*
X479120Y259080D02*
X462120Y259080D01*
X549120Y129340D02*
X479120Y129340D01*
X479120Y154840D01*
X549120Y154840D01*
X549120Y129340D01*
X565120Y142240D02*
X549120Y142240D01*
X479120Y142240D02*
X462120Y142240D01*

M02*
