G04 Generated by Ultiboard 14.1 *
%FSLAX34Y34*%
%MOMM*%

%ADD10C,0.0001*%
%ADD11C,0.2540*%
%ADD12C,1.6088*%
%ADD13R,0.5291X0.5291*%
%ADD14C,0.9949*%
%ADD15C,1.2446*%
%ADD16R,1.2446X1.2446*%
%ADD17C,1.5000*%
%ADD18R,1.5000X1.5000*%
%ADD19C,1.0000*%


G04 ColorRGB 00FF00 for the following layer *
%LNCopper Top*%
%LPD*%
G54D10*
G54D11*
X307500Y240000D02*
X307340Y239840D01*
X307340Y231140D01*
X449120Y142240D02*
X442500Y135620D01*
X442500Y135000D01*
X330000Y135000D01*
X327840Y137160D01*
X325120Y137160D01*
X300000Y137160D02*
X299720Y137160D01*
X217500Y150000D02*
X217500Y187960D01*
X218440Y187960D01*
X315000Y210000D02*
X315000Y127040D01*
X312420Y124460D01*
X434880Y244840D02*
X321040Y244840D01*
X320040Y243840D01*
X449120Y259080D02*
X434880Y244840D01*
X322620Y262500D02*
X307500Y247380D01*
X307500Y240000D01*
X262380Y210120D02*
X262500Y210000D01*
X431800Y30340D02*
X431800Y25400D01*
X246088Y175040D02*
X231360Y175040D01*
X277500Y206452D02*
X246088Y175040D01*
X231360Y175040D02*
X231140Y175260D01*
X296240Y301800D02*
X262380Y267940D01*
X262380Y210120D01*
X296240Y301800D02*
X320040Y301800D01*
X277500Y245396D02*
X277500Y206452D01*
X159350Y284480D02*
X152400Y284480D01*
X307184Y275080D02*
X277500Y245396D01*
X411280Y301800D02*
X371980Y262500D01*
X322620Y262500D01*
X411280Y301800D02*
X411480Y301800D01*
X299720Y137160D02*
X230340Y137160D01*
X217500Y150000D01*
X299720Y150640D02*
X299720Y137160D01*
X295160Y243320D02*
X295160Y155200D01*
X295160Y243320D02*
X294652Y243828D01*
X295160Y155200D02*
X299720Y150640D01*
X373240Y88900D02*
X431800Y30340D01*
X300000Y116250D02*
X327350Y88900D01*
X300000Y116250D02*
X300000Y137160D01*
X327350Y88900D02*
X373240Y88900D01*
X218440Y192240D02*
X218440Y187960D01*
X218340Y192340D02*
X218340Y225490D01*
X218440Y192240D02*
X218340Y192340D01*
X218340Y225490D02*
X159350Y284480D01*
X585340Y142240D02*
X579120Y142240D01*
X635080Y208200D02*
X635080Y191980D01*
X585340Y142240D01*
X634200Y233680D02*
X603720Y203200D01*
X579120Y203200D01*
X634200Y233680D02*
X635000Y233680D01*
X634000Y260080D02*
X580120Y260080D01*
X579120Y259080D01*
X634000Y260080D02*
X635000Y259080D01*
X340160Y507800D02*
X340160Y502500D01*
X340360Y508000D02*
X340160Y507800D01*
X365080Y507320D02*
X365080Y431800D01*
X365760Y508000D02*
X365080Y507320D01*
X365080Y431800D02*
X365760Y431800D01*
X392420Y506740D02*
X391160Y508000D01*
X392420Y503340D02*
X392420Y506740D01*
X412620Y432940D02*
X412620Y483140D01*
X412620Y432940D02*
X411480Y431800D01*
X412620Y483140D02*
X392420Y503340D01*
X319960Y462100D02*
X319960Y431880D01*
X340160Y502500D02*
X319960Y462100D01*
X365760Y298500D02*
X342340Y275080D01*
X365760Y298500D02*
X365760Y301800D01*
X342340Y275080D02*
X307184Y275080D01*
G54D12*
X457200Y25400D03*
X330200Y25400D03*
X304800Y25400D03*
X355600Y25400D03*
X406400Y25400D03*
X381000Y25400D03*
X431800Y25400D03*
X533400Y25400D03*
X558800Y25400D03*
X609600Y25400D03*
X584200Y25400D03*
X635000Y25400D03*
X340360Y508000D03*
X365760Y508000D03*
X391160Y508000D03*
X289560Y508000D03*
X314960Y508000D03*
X264160Y508000D03*
X213360Y508000D03*
X238760Y508000D03*
X187960Y508000D03*
X635000Y233680D03*
X635000Y259080D03*
X635000Y208280D03*
X457200Y508000D03*
X584200Y508000D03*
X609600Y508000D03*
X558800Y508000D03*
X508000Y508000D03*
X533400Y508000D03*
X482600Y508000D03*
X152400Y284480D03*
X152400Y309880D03*
G54D13*
X279400Y25400D03*
X508000Y25400D03*
X416560Y508000D03*
X635000Y284480D03*
X635000Y508000D03*
X152400Y259080D03*
G54D14*
X276755Y22755D02*
X282045Y22755D01*
X282045Y28045D01*
X276755Y28045D01*
X276755Y22755D01*D02*
X505355Y22755D02*
X510645Y22755D01*
X510645Y28045D01*
X505355Y28045D01*
X505355Y22755D01*D02*
X413915Y505355D02*
X419205Y505355D01*
X419205Y510645D01*
X413915Y510645D01*
X413915Y505355D01*D02*
X632355Y281835D02*
X637645Y281835D01*
X637645Y287125D01*
X632355Y287125D01*
X632355Y281835D01*D02*
X632355Y505355D02*
X637645Y505355D01*
X637645Y510645D01*
X632355Y510645D01*
X632355Y505355D01*D02*
X149755Y256435D02*
X155045Y256435D01*
X155045Y261725D01*
X149755Y261725D01*
X149755Y256435D01*D02*
G54D15*
X325120Y137160D03*
X312420Y124460D03*
X243840Y187960D03*
X231140Y175260D03*
X320040Y243840D03*
X307340Y231140D03*
G54D16*
X299720Y137160D03*
X218440Y187960D03*
X294640Y243840D03*
G54D17*
X411480Y301800D03*
X365760Y301800D03*
X320040Y301800D03*
X449120Y203200D03*
X449120Y259080D03*
X449120Y142240D03*
G54D18*
X411480Y431800D03*
X365760Y431800D03*
X320040Y431800D03*
X579120Y203200D03*
X579120Y259080D03*
X579120Y142240D03*
G54D19*
X262500Y210000D03*
X315000Y210000D03*

M02*
