G04 Generated by Ultiboard 14.1 *
%FSLAX34Y34*%
%MOMM*%

%ADD10C,0.0001*%
%ADD11C,0.2540*%
%ADD12C,1.6088*%
%ADD13R,0.5291X0.5291*%
%ADD14C,0.9949*%
%ADD15C,1.0000*%
%ADD16C,1.5000*%
%ADD17C,1.2446*%
%ADD18R,1.2446X1.2446*%


G04 ColorRGB 0000FF for the following layer *
%LNCopper Bottom*%
%LPD*%
G54D10*
G54D11*
X561340Y175260D02*
X557760Y175260D01*
X555000Y172500D01*
X465000Y150000D02*
X464960Y150000D01*
X457200Y142240D01*
X547640Y265160D02*
X548640Y264160D01*
X531660Y172500D02*
X480000Y224160D01*
X555000Y172500D02*
X531660Y172500D01*
X480000Y224160D02*
X480000Y225000D01*
X413960Y301800D02*
X411480Y301800D01*
X465000Y223084D02*
X465000Y150000D01*
X476836Y234920D02*
X465000Y223084D01*
X583910Y234920D02*
X633450Y284460D01*
X635020Y284460D01*
X583910Y234920D02*
X476836Y234920D01*
X559920Y250040D02*
X465720Y250040D01*
X413960Y301800D01*
X561340Y251460D02*
X559920Y250040D01*
X561280Y99060D02*
X537220Y75000D01*
X442500Y75000D01*
X323120Y194380D02*
X323120Y298560D01*
X442500Y75000D02*
X323120Y194380D01*
X323120Y298560D02*
X319960Y301720D01*
G54D12*
X457200Y25400D03*
X330200Y25400D03*
X304800Y25400D03*
X355600Y25400D03*
X406400Y25400D03*
X381000Y25400D03*
X431800Y25400D03*
X533400Y25400D03*
X558800Y25400D03*
X609600Y25400D03*
X584200Y25400D03*
X635000Y25400D03*
X340360Y508000D03*
X365760Y508000D03*
X391160Y508000D03*
X289560Y508000D03*
X314960Y508000D03*
X264160Y508000D03*
X213360Y508000D03*
X238760Y508000D03*
X187960Y508000D03*
X457200Y508000D03*
X584200Y508000D03*
X609600Y508000D03*
X558800Y508000D03*
X508000Y508000D03*
X533400Y508000D03*
X482600Y508000D03*
X457200Y116840D03*
X457200Y142240D03*
X635000Y233680D03*
X635000Y259080D03*
X635000Y208280D03*
G54D13*
X279400Y25400D03*
X508000Y25400D03*
X416560Y508000D03*
X635000Y508000D03*
X457200Y91440D03*
X635000Y284480D03*
G54D14*
X276755Y22755D02*
X282045Y22755D01*
X282045Y28045D01*
X276755Y28045D01*
X276755Y22755D01*D02*
X505355Y22755D02*
X510645Y22755D01*
X510645Y28045D01*
X505355Y28045D01*
X505355Y22755D01*D02*
X413915Y505355D02*
X419205Y505355D01*
X419205Y510645D01*
X413915Y510645D01*
X413915Y505355D01*D02*
X632355Y505355D02*
X637645Y505355D01*
X637645Y510645D01*
X632355Y510645D01*
X632355Y505355D01*D02*
X454555Y88795D02*
X459845Y88795D01*
X459845Y94085D01*
X454555Y94085D01*
X454555Y88795D01*D02*
X632355Y281835D02*
X637645Y281835D01*
X637645Y287125D01*
X632355Y287125D01*
X632355Y281835D01*D02*
G54D15*
X480000Y225000D03*
G54D16*
X320040Y301800D03*
X320040Y431800D03*
X365760Y301800D03*
X365760Y431800D03*
X411480Y301800D03*
X411480Y431800D03*
G54D17*
X574040Y187960D03*
X561340Y175260D03*
X574040Y111760D03*
X561340Y99060D03*
X574040Y264160D03*
X561340Y251460D03*
G54D18*
X548640Y187960D03*
X548640Y111760D03*
X548640Y264160D03*

M02*
