G04 Generated by Ultiboard 14.1 *
%FSLAX34Y34*%
%MOMM*%

%ADD10C,0.0001*%
%ADD11C,0.2540*%
%ADD12C,1.6088*%
%ADD13R,0.5291X0.5291*%
%ADD14C,0.9949*%
%ADD15C,1.0000*%
%ADD16C,1.5000*%
%ADD17R,1.5000X1.5000*%
%ADD18C,1.2446*%
%ADD19R,1.2446X1.2446*%


G04 ColorRGB 00FF00 for the following layer *
%LNCopper Top*%
%LPD*%
G54D10*
G54D11*
X431800Y25400D02*
X428900Y22500D01*
X635000Y259080D02*
X631580Y262500D01*
X577500Y262500D01*
X575840Y264160D01*
X574040Y264160D01*
X548640Y111760D02*
X548640Y112500D01*
X457200Y91440D02*
X457500Y91440D01*
X457500Y37500D01*
X457200Y37200D01*
X457200Y25400D01*
X435000Y28600D02*
X431800Y25400D01*
X548640Y264160D02*
X547500Y264160D01*
X547500Y187960D01*
X548640Y187960D01*
X577500Y120000D02*
X574040Y116540D01*
X574040Y111760D01*
X548640Y187960D02*
X547500Y187960D01*
X547500Y111760D01*
X548640Y111760D01*
X459680Y245320D02*
X480000Y225000D01*
X425800Y245320D02*
X369320Y301800D01*
X459680Y245320D02*
X425800Y245320D01*
X369320Y301800D02*
X365760Y301800D01*
X635000Y206660D02*
X577500Y149160D01*
X635000Y206660D02*
X635000Y208280D01*
X577500Y149160D02*
X577500Y120000D01*
X633110Y233680D02*
X587390Y187960D01*
X574040Y187960D01*
X633110Y233680D02*
X635000Y233680D01*
X548640Y112500D02*
X547500Y112500D01*
X542420Y117580D02*
X456460Y117580D01*
X542420Y117580D02*
X547500Y112500D01*
X455304Y117684D02*
X456356Y117684D01*
X456460Y117580D02*
X456356Y117684D01*
X435000Y97380D02*
X435000Y28600D01*
X455304Y117684D02*
X435000Y97380D01*
X320040Y432624D02*
X340360Y452944D01*
X320040Y432624D02*
X320040Y431800D01*
X340360Y452944D02*
X340360Y508000D01*
X365080Y507320D02*
X365080Y431800D01*
X365760Y431800D01*
X365760Y508000D02*
X365080Y507320D01*
X411480Y434436D02*
X391160Y454756D01*
X411480Y434436D02*
X411480Y431800D01*
X391160Y454756D02*
X391160Y508000D01*
G54D12*
X457200Y25400D03*
X330200Y25400D03*
X304800Y25400D03*
X355600Y25400D03*
X406400Y25400D03*
X381000Y25400D03*
X431800Y25400D03*
X533400Y25400D03*
X558800Y25400D03*
X609600Y25400D03*
X584200Y25400D03*
X635000Y25400D03*
X340360Y508000D03*
X365760Y508000D03*
X391160Y508000D03*
X289560Y508000D03*
X314960Y508000D03*
X264160Y508000D03*
X213360Y508000D03*
X238760Y508000D03*
X187960Y508000D03*
X457200Y508000D03*
X584200Y508000D03*
X609600Y508000D03*
X558800Y508000D03*
X508000Y508000D03*
X533400Y508000D03*
X482600Y508000D03*
X457200Y116840D03*
X457200Y142240D03*
X635000Y233680D03*
X635000Y259080D03*
X635000Y208280D03*
G54D13*
X279400Y25400D03*
X508000Y25400D03*
X416560Y508000D03*
X635000Y508000D03*
X457200Y91440D03*
X635000Y284480D03*
G54D14*
X276755Y22755D02*
X282045Y22755D01*
X282045Y28045D01*
X276755Y28045D01*
X276755Y22755D01*D02*
X505355Y22755D02*
X510645Y22755D01*
X510645Y28045D01*
X505355Y28045D01*
X505355Y22755D01*D02*
X413915Y505355D02*
X419205Y505355D01*
X419205Y510645D01*
X413915Y510645D01*
X413915Y505355D01*D02*
X632355Y505355D02*
X637645Y505355D01*
X637645Y510645D01*
X632355Y510645D01*
X632355Y505355D01*D02*
X454555Y88795D02*
X459845Y88795D01*
X459845Y94085D01*
X454555Y94085D01*
X454555Y88795D01*D02*
X632355Y281835D02*
X637645Y281835D01*
X637645Y287125D01*
X632355Y287125D01*
X632355Y281835D01*D02*
G54D15*
X480000Y225000D03*
G54D16*
X320040Y301800D03*
X365760Y301800D03*
X411480Y301800D03*
G54D17*
X320040Y431800D03*
X365760Y431800D03*
X411480Y431800D03*
G54D18*
X574040Y187960D03*
X561340Y175260D03*
X574040Y111760D03*
X561340Y99060D03*
X574040Y264160D03*
X561340Y251460D03*
G54D19*
X548640Y187960D03*
X548640Y111760D03*
X548640Y264160D03*

M02*
