M48
METRIC,TZ
VER,1
FMAT,2
DETECT,ON
ATC,ON
T1C3.2000
T2C0.8890
T3C0.9949
T4C0.6000
T5C0.9000
%
T1
X660400Y355600
X139700Y25400
X660400Y76200
X152400Y508000
T2
X457200Y25400
X330200
X304800
X355600
X406400
X381000
X431800
X533400
X558800
X609600
X584200
X635000
X340360Y508000
X365760
X391160
X289560
X314960
X264160
X213360
X238760
X187960
X457200
X584200
X609600
X558800
X508000
X533400
X482600
X457200Y116840
Y142240
X635000Y233680
Y259080
Y208280
X574040Y187960
X561340Y175260
X548640Y187960
X574040Y111760
X561340Y99060
X548640Y111760
X574040Y264160
X561340Y251460
X548640Y264160
T3
X279400Y25400
X508000
X416560Y508000
X635000
X457200Y91440
X635000Y284480
T4
X480000Y225000
T5
X320040Y301800
Y431800
X365760Y301800
Y431800
X411480Y301800
Y431800
M30
