G04 Generated by Ultiboard 14.1 *
%FSLAX34Y34*%
%MOMM*%

%ADD10C,0.0001*%
%ADD11C,3.2000*%
%ADD12C,0.8890*%
%ADD13C,0.9949*%
%ADD14C,0.6000*%
%ADD15C,0.9000*%


G04 ColorRGB 000000 for the following layer *
%LNDrill-Copper Top-Copper Bottom*%
%LPD*%
G54D11*
X660400Y355600D03*
X139700Y25400D03*
X660400Y76200D03*
X152400Y508000D03*
G54D12*
X457200Y25400D03*
X330200Y25400D03*
X304800Y25400D03*
X355600Y25400D03*
X406400Y25400D03*
X381000Y25400D03*
X431800Y25400D03*
X533400Y25400D03*
X558800Y25400D03*
X609600Y25400D03*
X584200Y25400D03*
X635000Y25400D03*
X340360Y508000D03*
X365760Y508000D03*
X391160Y508000D03*
X289560Y508000D03*
X314960Y508000D03*
X264160Y508000D03*
X213360Y508000D03*
X238760Y508000D03*
X187960Y508000D03*
X457200Y508000D03*
X584200Y508000D03*
X609600Y508000D03*
X558800Y508000D03*
X508000Y508000D03*
X533400Y508000D03*
X482600Y508000D03*
X457200Y116840D03*
X457200Y142240D03*
X635000Y233680D03*
X635000Y259080D03*
X635000Y208280D03*
X574040Y187960D03*
X561340Y175260D03*
X548640Y187960D03*
X574040Y111760D03*
X561340Y99060D03*
X548640Y111760D03*
X574040Y264160D03*
X561340Y251460D03*
X548640Y264160D03*
G54D13*
X279400Y25400D03*
X508000Y25400D03*
X416560Y508000D03*
X635000Y508000D03*
X457200Y91440D03*
X635000Y284480D03*
G54D14*
X480000Y225000D03*
G54D15*
X320040Y301800D03*
X320040Y431800D03*
X365760Y301800D03*
X365760Y431800D03*
X411480Y301800D03*
X411480Y431800D03*

M02*
